<svg xmlns="http://www.w3.org/2000/svg" viewBox="0 0 351 178" preserveAspectRatio="none">
  <defs>
    <linearGradient id="panel" x1="0" x2="1" y1="0" y2="1">
      <stop offset="0" stop-color="#168fdc" stop-opacity=".62"/>
      <stop offset=".5" stop-color="#1778c9" stop-opacity=".52"/>
      <stop offset="1" stop-color="#0a5ba8" stop-opacity=".50"/>
    </linearGradient>
    <filter id="lineGlow" x="-8%" y="-180%" width="116%" height="460%">
      <feGaussianBlur stdDeviation="3" result="b"/>
      <feMerge><feMergeNode in="b"/><feMergeNode in="SourceGraphic"/></feMerge>
    </filter>
  </defs>
  <rect width="351" height="178" fill="url(#panel)" opacity=".42"/>
  <path d="M0 33h139c15 0 24-7 36-16l12-10h164" fill="none" stroke="#1267aa" stroke-opacity=".32" stroke-width="5"/>
  <path d="M0 32h139c15 0 24-7 36-16l12-10h164" fill="none" stroke="#80e7ff" stroke-opacity=".68" stroke-width="1.25" filter="url(#lineGlow)"/>
  <path d="M1 34h137c16 0 25-6 38-16l12-9h163" fill="none" stroke="#d2ffff" stroke-opacity=".22" stroke-width=".8"/>
  <circle cx="68" cy="181" r="43" fill="#caefff" opacity=".20"/>
  <circle cx="282" cy="-22" r="58" fill="#d5fbff" opacity=".18"/>
  <path d="M252 0h99v26c-28 3-48-3-66-11-13-6-23-10-33-15z" fill="#c8f4ff" opacity=".075"/>
</svg>
